<svg width="25" height="24" viewBox="0 0 25 24" fill="none" xmlns="http://www.w3.org/2000/svg">
<path d="M20.452 20.6527C20.9037 21.1055 21.6009 20.4066 21.1492 19.9636L17.467 16.2624C18.759 14.8298 19.473 12.9666 19.4701 11.0353C19.4701 6.71392 15.9646 3.1997 11.654 3.1997C7.34331 3.1997 3.83783 6.71392 3.83783 11.0353C3.83783 15.3567 7.34331 18.8709 11.654 18.8709C13.5982 18.8709 15.3951 18.1524 16.7698 16.9613L20.452 20.6527ZM4.81878 11.0353C4.81878 7.25532 7.89221 4.18407 11.653 4.18407C15.4236 4.18407 18.4872 7.25532 18.4872 11.0353C18.4872 14.8153 15.4236 17.8866 11.653 17.8866C7.89221 17.8866 4.81878 14.8153 4.81878 11.0353Z" fill="#7A7A7A"/>
</svg>
