<svg width="40" height="37" viewBox="0 0 40 37" fill="none" xmlns="http://www.w3.org/2000/svg">
<path fill-rule="evenodd" clip-rule="evenodd" d="M7.73333 1.23334C7.73333 0.97166 7.62095 0.720697 7.42091 0.535662C7.22087 0.350626 6.94956 0.246674 6.66666 0.246674C6.38377 0.246674 6.11245 0.350626 5.91242 0.535662C5.71238 0.720697 5.6 0.97166 5.6 1.23334V2.71334H4C3.7171 2.71334 3.44579 2.81729 3.24575 3.00233C3.04571 3.18736 2.93333 3.43833 2.93333 3.70001C2.93333 3.96169 3.04571 4.21265 3.24575 4.39769C3.44579 4.58272 3.7171 4.68667 4 4.68667H5.6V6.16667C5.6 6.29624 5.62759 6.42455 5.68119 6.54425C5.7348 6.66396 5.81337 6.77273 5.91242 6.86435C6.01147 6.95597 6.12905 7.02865 6.25847 7.07824C6.38788 7.12782 6.52659 7.15334 6.66666 7.15334C6.80674 7.15334 6.94544 7.12782 7.07486 7.07824C7.20427 7.02865 7.32186 6.95597 7.42091 6.86435C7.51996 6.77273 7.59853 6.66396 7.65213 6.54425C7.70574 6.42455 7.73333 6.29624 7.73333 6.16667V4.68667H9.33333C9.61623 4.68667 9.88754 4.58272 10.0876 4.39769C10.2876 4.21265 10.4 3.96169 10.4 3.70001C10.4 3.43833 10.2876 3.18736 10.0876 3.00233C9.88754 2.81729 9.61623 2.71334 9.33333 2.71334H7.73333V1.23334ZM15.7333 8.63334C15.7333 8.50377 15.7057 8.37547 15.6521 8.25576C15.5985 8.13605 15.52 8.02728 15.4209 7.93566C15.3219 7.84404 15.2043 7.77136 15.0749 7.72178C14.9454 7.67219 14.8067 7.64667 14.6667 7.64667C14.5266 7.64667 14.3879 7.67219 14.2585 7.72178C14.1291 7.77136 14.0115 7.84404 13.9124 7.93566C13.8134 8.02728 13.7348 8.13605 13.6812 8.25576C13.6276 8.37547 13.6 8.50377 13.6 8.63334V10.1133H12C11.8599 10.1133 11.7212 10.1389 11.5918 10.1884C11.4624 10.238 11.3448 10.3107 11.2457 10.4023C11.1467 10.4939 11.0681 10.6027 11.0145 10.7224C10.9609 10.8421 10.9333 10.9704 10.9333 11.1C10.9333 11.2296 10.9609 11.3579 11.0145 11.4776C11.0681 11.5973 11.1467 11.7061 11.2457 11.7977C11.3448 11.8893 11.4624 11.962 11.5918 12.0116C11.7212 12.0612 11.8599 12.0867 12 12.0867H13.6V13.5667C13.6 13.6962 13.6276 13.8245 13.6812 13.9443C13.7348 14.064 13.8134 14.1727 13.9124 14.2644C14.0115 14.356 14.1291 14.4287 14.2585 14.4782C14.3879 14.5278 14.5266 14.5533 14.6667 14.5533C14.8067 14.5533 14.9454 14.5278 15.0749 14.4782C15.2043 14.4287 15.3219 14.356 15.4209 14.2644C15.52 14.1727 15.5985 14.064 15.6521 13.9443C15.7057 13.8245 15.7333 13.6962 15.7333 13.5667V12.0867H17.3333C17.6162 12.0867 17.8875 11.9827 18.0876 11.7977C18.2876 11.6126 18.4 11.3617 18.4 11.1C18.4 10.8383 18.2876 10.5874 18.0876 10.4023C17.8875 10.2173 17.6162 10.1133 17.3333 10.1133H15.7333V8.63334ZM5.06666 16.0333C5.06666 15.7717 4.95428 15.5207 4.75424 15.3357C4.5542 15.1506 4.28289 15.0467 4 15.0467C3.7171 15.0467 3.44579 15.1506 3.24575 15.3357C3.04571 15.5207 2.93333 15.7717 2.93333 16.0333V17.5133H1.33333C1.05043 17.5133 0.779121 17.6173 0.579082 17.8023C0.379043 17.9874 0.266663 18.2383 0.266663 18.5C0.266663 18.7617 0.379043 19.0126 0.579082 19.1977C0.779121 19.3827 1.05043 19.4867 1.33333 19.4867H2.93333V20.9667C2.93333 21.2284 3.04571 21.4793 3.24575 21.6644C3.44579 21.8494 3.7171 21.9533 4 21.9533C4.28289 21.9533 4.5542 21.8494 4.75424 21.6644C4.95428 21.4793 5.06666 21.2284 5.06666 20.9667V19.4867H6.66666C6.94956 19.4867 7.22087 19.3827 7.42091 19.1977C7.62095 19.0126 7.73333 18.7617 7.73333 18.5C7.73333 18.2383 7.62095 17.9874 7.42091 17.8023C7.22087 17.6173 6.94956 17.5133 6.66666 17.5133H5.06666V16.0333ZM22.784 2.42227L21.9893 2.32361C21.4213 2.26441 21.0827 2.87614 21.4107 3.31027C21.7858 3.81183 22.1316 4.33147 22.448 4.86921C23.8502 7.28424 24.5706 9.98762 24.5425 12.7288C24.5144 15.47 23.7387 18.1602 22.2873 20.5502C20.8358 22.9402 18.7556 24.9526 16.2394 26.4009C13.7232 27.8493 10.8525 28.6866 7.89333 28.8353C7.32 28.8649 7.00266 29.4865 7.40266 29.8639C7.58577 30.0366 7.77244 30.206 7.96266 30.3721L8.15466 30.5349L8.848 31.0923L9.34933 31.4574L9.672 31.6794L10.1707 32.0025L10.64 32.2862C10.96 32.4753 11.2889 32.6537 11.6267 32.8215L12.3307 33.1545L13.024 33.4505L13.832 33.7514L14.4827 33.9635C15.4414 34.2549 16.4255 34.4695 17.424 34.6049L18.2693 34.7035L18.9813 34.7529C19.3191 34.771 19.6604 34.78 20.0053 34.78C22.4832 34.7805 24.9333 34.2971 27.1952 33.3612C29.4572 32.4254 31.48 31.0584 33.1313 29.3495C34.7827 27.6406 36.0253 25.6284 36.7779 23.4447C37.5305 21.2609 37.7761 18.9548 37.4987 16.6771L37.3973 15.9939C37.1972 14.7989 36.8537 13.6282 36.3733 12.5035L36.072 11.8425L35.8667 11.433L35.6693 11.0679C35.2466 10.3077 34.7597 9.57941 34.2133 8.88987L33.8053 8.39654L33.2747 7.80454L32.84 7.36054L32.52 7.05467L32.0933 6.66494L31.4987 6.17161L30.6453 5.53027L29.992 5.09367L29.2133 4.62501L28.3573 4.16621L27.4827 3.75921L27.1813 3.63094L26.5413 3.38181L25.8053 3.12527L25.1333 2.92301L24.2667 2.70101L23.56 2.55301L22.784 2.42227ZM27.744 13.0733C27.7445 10.6245 27.2263 8.19933 26.2187 5.93481C29.8065 7.48788 32.5804 10.2957 33.9302 13.7406C35.28 17.1855 35.095 20.9853 33.416 24.3041C31.737 27.6228 28.7015 30.1887 24.9773 31.4372C21.2531 32.6858 17.1452 32.5147 13.5573 30.9616C17.4041 29.842 20.8024 27.6863 23.3173 24.7703C23.5655 25.0863 23.9155 25.3214 24.3171 25.4419C24.7187 25.5624 25.1513 25.5621 25.5527 25.4409C25.9542 25.3198 26.3037 25.0841 26.5513 24.7678C26.7989 24.4514 26.9317 24.0706 26.9307 23.68C26.931 23.2603 26.7771 22.8529 26.4941 22.5248C26.2111 22.1967 25.8159 21.9673 25.3733 21.8744C25.5387 21.5883 25.6969 21.2964 25.848 20.9987C26.2865 21.2497 26.782 21.4031 27.2955 21.447C27.8089 21.4908 28.3264 21.4238 28.8072 21.2514C29.2879 21.0789 29.7189 20.8056 30.0661 20.4529C30.4133 20.1003 30.6674 19.678 30.8083 19.2192C30.9492 18.7603 30.9731 18.2775 30.8781 17.8087C30.7831 17.3399 30.5718 16.8978 30.2609 16.5173C29.9499 16.1368 29.5478 15.8283 29.086 15.6159C28.6243 15.4035 28.1157 15.2931 27.6 15.2933C27.6924 14.5665 27.7387 13.8265 27.7387 13.0733" fill="black"/>
</svg>
