<svg width="18" height="18" viewBox="0 0 18 18" fill="none" xmlns="http://www.w3.org/2000/svg">
<g clip-path="url(#clip0_1_66)">
<path d="M11.6427 7.9453C11.6427 8.27206 11.5785 8.59563 11.4538 8.89752C11.329 9.19941 11.1462 9.47372 10.9157 9.70478C10.6852 9.93584 10.4116 10.1191 10.1105 10.2442C9.80934 10.3692 9.48658 10.4336 9.16062 10.4336C8.83467 10.4336 8.51191 10.3692 8.21077 10.2442C7.90962 10.1191 7.636 9.93584 7.40552 9.70478C7.17503 9.47372 6.9922 9.19941 6.86747 8.89752C6.74273 8.59563 6.67853 8.27206 6.67853 7.9453C6.67853 7.28536 6.94003 6.65246 7.40552 6.18582C7.871 5.71917 8.50233 5.45702 9.16062 5.45702C9.81892 5.45702 10.4502 5.71917 10.9157 6.18582C11.3812 6.65246 11.6427 7.28536 11.6427 7.9453Z" stroke="#292929" stroke-width="1.5" stroke-linecap="round" stroke-linejoin="round"/>
<path d="M9.16061 1.54686C12.6143 1.54686 15.5431 4.41407 15.5431 7.89269C15.5431 11.426 12.5668 13.9065 9.81801 15.5921C9.61731 15.7054 9.3909 15.7649 9.16061 15.7649C8.93031 15.7649 8.7039 15.7054 8.50321 15.5921C5.75872 13.8909 2.77808 11.4396 2.77808 7.8934C2.77808 4.41407 5.70695 1.54686 9.16061 1.54686Z" stroke="#292929" stroke-width="1.5" stroke-linecap="round" stroke-linejoin="round"/>
</g>
<defs>
<clipPath id="clip0_1_66">
<rect width="17.0201" height="17.0625" fill="white" transform="translate(0.650574 0.124985)"/>
</clipPath>
</defs>
</svg>
